<svg width="456" height="456" viewBox="0 0 456 456" fill="none" xmlns="http://www.w3.org/2000/svg">
<path d="M324.073 112.143C321.659 110.905 318.756 111.095 316.512 112.595C294.683 127.357 280.122 150.548 276.561 176.238L269.561 226.738L269.512 226.952C268.634 230.81 271.122 234.619 275.073 235.476C281.878 236.952 286.683 242.952 286.512 249.786C286.341 257.452 279.39 263.714 271.049 263.714H263.732C262.512 263.714 261.293 263.786 260.098 263.905C259.878 263.476 259.683 263.024 259.463 262.571L253.415 251.095C241.561 228.619 235.317 203.405 235.317 178.119V85.1429C235.317 81.1905 232.049 78 228 78C223.951 78 220.683 81.1905 220.683 85.1429V178.119C220.683 203.381 214.439 228.619 202.585 251.071L196.537 262.548C196.317 262.976 196.122 263.429 195.902 263.881C194.707 263.786 193.488 263.714 192.268 263.714H184.951C176.61 263.714 169.659 257.452 169.463 249.786C169.293 242.976 174.122 236.952 180.902 235.476C184.854 234.619 187.341 230.81 186.463 226.952L179.415 176.238C175.854 150.548 161.293 127.333 139.463 112.595C137.22 111.095 134.317 110.905 131.902 112.143C129.512 113.381 128 115.81 128 118.476V306.571C128 310.524 131.268 313.714 135.317 313.714H164.585C168.634 313.714 171.902 310.524 171.902 306.571C171.902 302.619 168.634 299.429 164.585 299.429H142.634V133.786C154.683 145.738 162.61 161.333 164.927 178.167L171.244 223.762C161.171 228.571 154.561 238.786 154.829 250.119C155.22 265.5 168.732 278 184.951 278H190.488C184.78 298.762 187.927 321.357 199.756 339.952L221.805 374.643C223.122 376.714 225.463 378 228 378C230.537 378 232.878 376.714 234.22 374.619L256.268 339.929C268.073 321.357 271.22 298.762 265.537 277.976H271.073C287.268 278 300.78 265.5 301.171 250.119C301.439 238.786 294.829 228.571 284.756 223.762L291.073 178.167C293.39 161.333 301.317 145.762 313.366 133.786V299.429H288.976C284.927 299.429 281.659 302.619 281.659 306.571C281.659 310.524 284.927 313.714 288.976 313.714H320.683C324.732 313.714 328 310.524 328 306.571V118.476C328 115.81 326.488 113.381 324.073 112.143ZM215.61 257.619C220.707 247.952 224.854 237.81 228 227.381C231.146 237.81 235.293 247.952 240.39 257.619L245.659 267.643C238.488 270.905 232.366 275.976 227.976 282.333C223.585 275.976 217.463 270.905 210.293 267.643L215.61 257.619ZM243.829 332.405L228 357.31L212.171 332.405C202.341 316.952 199.829 298.095 204.805 280.881C214.195 285.405 220.683 294.833 220.683 305.738V320.024C220.683 323.976 223.951 327.167 228 327.167C232.049 327.167 235.317 323.976 235.317 320.024V305.738C235.317 294.833 241.805 285.429 251.195 280.881C256.171 298.095 253.659 316.952 243.829 332.405Z" fill="#FFD900"/>
</svg>
